HIERARCHY
ROOT Hips
{
  OFFSET 0 0 0
  CHANNELS 6 Xposition Yposition Zposition Zrotation Yrotation Xrotation
  JOINT LeftThigh
  {
    OFFSET 8.409438 0 -5.917753
    CHANNELS 3 Zrotation Yrotation Xrotation
    JOINT LeftLeg
    {
      OFFSET 0 0 -42.358652
      CHANNELS 3 Zrotation Yrotation Xrotation
      JOINT LeftFoot
      {
        OFFSET 0 0 -39.357303
        CHANNELS 3 Zrotation Yrotation Xrotation
      }
    }
  }
  JOINT RightThigh
  {
    OFFSET -8.409438 0 -5.917753
    CHANNELS 3 Zrotation Yrotation Xrotation
    JOINT RightLeg
    {
      OFFSET 0 0 -42.358652
      CHANNELS 3 Zrotation Yrotation Xrotation
      JOINT RightFoot
      {
        OFFSET 0 0 -39.357303
        CHANNELS 3 Zrotation Yrotation Xrotation
      }
    }
  }
  JOINT SpineLow
  {
    OFFSET 0 0 4.719101
    CHANNELS 3 Zrotation Yrotation Xrotation
    JOINT SpineMid
    {
      OFFSET 0 0 12.899191
      CHANNELS 3 Zrotation Yrotation Xrotation
      JOINT Chest
      {
        OFFSET 0 0 12.899191
        CHANNELS 3 Zrotation Yrotation Xrotation
        JOINT LeftShoulder
        {
          OFFSET 7.550562 1.41573 9.438202
          CHANNELS 3 Zrotation Yrotation Xrotation
          JOINT LeftArm
          {
            OFFSET 9.155056 0 4.247191
            CHANNELS 3 Zrotation Yrotation Xrotation
            JOINT LeftForearm
            {
              OFFSET 0 0 25.771955
              CHANNELS 3 Zrotation Yrotation Xrotation
              JOINT LeftHand
              {
                OFFSET 0 0 25.197169
                CHANNELS 3 Zrotation Yrotation Xrotation
              }
            }
          }
        }
        JOINT RightShoulder
        {
          OFFSET -7.550562 1.41573 9.438202
          CHANNELS 3 Zrotation Yrotation Xrotation
          JOINT RightArm
          {
            OFFSET -9.155056 0 4.247191
            CHANNELS 3 Zrotation Yrotation Xrotation
            JOINT RightForearm
            {
              OFFSET 0 0 -25.771955
              CHANNELS 3 Zrotation Yrotation Xrotation
              JOINT RightHand
              {
                OFFSET 0 0 -25.197169
                CHANNELS 3 Zrotation Yrotation Xrotation
              }
            }
          }
        }
        JOINT Neck
        {
          OFFSET 0 0 15.101124
          CHANNELS 3 Zrotation Yrotation Xrotation
          JOINT Head
          {
            OFFSET 0 0 11.325843
            CHANNELS 3 Zrotation Yrotation Xrotation
            End Site
            {
              OFFSET 0 0 14.157303
            }
          }
        }
      }
    }
  }
}
MOTION
Frames: 5
Frame Time: 0.0
0.0  101.685394  0.0  12.564388  57.350279  -86.526193  -7.588725  -9.405354  -6.598624  -24.928004  16.150659  19.255079  0.595944  2.756343  1.86112  -36.633751  24.171551  -2.693016  -15.844999  11.362064  20.309797  2.96223  3.407728  -4.294457  2.234731  1.829237  2.494014  6.299826  4.758365  6.990837  6.299826  4.758364  6.990837  18.768757  18.097337  12.932345  157.790277  25.429561  -174.43245  -21.607725  5.584421  127.078749  76.17175  6.322801  -8.07321  32.693144  -2.84488  11.300483  119.941564  31.519592  90.33053  -79.522244  52.342746  -93.772218  85.258246  26.824629  22.395632  -25.675424  -1.436221  -5.042194  -19.268957  -0.867006  -3.849936  
0.0  101.685394  0.0  12.196536  56.518536  -86.897234  -7.228275  -9.52946  -6.265167  -24.839581  15.869119  18.962361  0.664219  2.798149  1.918279  -37.925786  24.308601  -3.191045  -14.663364  11.120461  20.062814  3.178047  3.479586  -4.291329  2.206636  1.857404  2.510869  6.227448  4.836568  7.037937  6.227449  4.836568  7.037937  18.501739  18.248543  13.21356  157.837245  26.03858  -173.818439  -21.154609  4.015986  126.731897  76.839163  6.952402  -7.209071  32.05127  -2.566543  11.494251  120.271426  30.615683  89.783538  -79.860062  52.345036  -92.766884  85.643401  27.085187  22.40606  -25.448951  -1.412165  -4.933772  -19.098615  -0.855297  -3.76678  
0.0  101.685394  0.0  11.666487  55.369242  -87.48915  -6.750549  -9.709187  -5.801883  -24.665962  15.629452  18.723358  0.795848  2.826251  1.931914  -39.090986  24.44294  -3.728205  -13.335849  10.818487  19.878843  3.59162  3.500437  -4.285947  2.184416  1.857812  2.494044  6.165555  4.841687  6.990396  6.165554  4.841687  6.990396  18.271776  18.444738  13.758116  157.916531  26.579217  -173.305603  -20.857926  2.392765  126.312849  77.399701  7.622249  -6.365921  31.333487  -2.195179  11.856435  120.615891  30.097523  89.042417  -80.23678  52.113108  -91.809339  86.180703  27.307981  22.529877  -25.116114  -1.283312  -4.639177  -18.847321  -0.773247  -3.539141  
0.0  101.685394  0.0  11.051319  53.999865  -88.23381  -6.332156  -9.965994  -5.308637  -24.363709  15.478384  18.51156  1.211909  2.840716  2.048776  -40.087935  24.613128  -4.271988  -12.131519  10.532037  19.791245  4.219406  3.509262  -4.296194  2.155345  1.863832  2.48947  6.08644  4.861655  6.976453  6.08644  4.861655  6.976453  17.917675  18.649564  14.190713  158.136015  27.045391  -172.84458  -20.75149  0.320811  125.751435  77.468694  8.125061  -5.753173  30.606839  -1.803586  12.139273  120.991652  30.047336  88.217276  -80.677224  51.624815  -90.990917  86.832384  27.509191  22.77673  -24.706253  -1.214521  -4.320473  -18.538675  -0.737541  -3.295785  
0.0  101.685394  0.0  10.297381  52.239456  -89.164627  -5.547824  -10.398183  -4.585483  -23.848274  15.286907  18.347815  1.187821  2.876821  2.013839  -40.517644  24.676881  -4.735316  -10.820748  10.146511  19.832016  4.532539  3.581265  -4.265235  2.157291  1.862496  2.482071  6.091082  4.858501  6.956215  6.091082  4.858501  6.956216  17.425659  18.848866  14.648504  158.4528  27.43245  -172.369138  -20.508721  -1.483106  125.170086  77.782333  8.593154  -5.327584  29.895116  -1.565192  12.471466  121.335335  30.40504  87.412998  -81.222972  50.93142  -90.457387  87.498413  27.703179  22.950217  -24.243208  -1.16034  -4.01766  -18.190339  -0.712104  -3.06495  
